<?xml version="1.0" standalone="no"?>
<svg
  width="600"
  height="600"
  viewBox="0 0 600 600"
  xmlns="http://www.w3.org/2000/svg"
>
  <g transform="translate(300,300)">
    <path d="M103.7,-152.9C139.2,-116.9,176.1,-93.1,194.7,-58C213.4,-23,213.7,23.3,193.5,56C173.4,88.7,132.9,107.9,97.2,130.1C61.5,152.3,30.8,177.7,-8.6,189.5C-48,201.4,-96,199.8,-135.5,178.8C-174.9,157.8,-205.9,117.4,-221,71.6C-236.2,25.9,-235.5,-25.2,-219.5,-70.3C-203.4,-115.3,-172,-154.3,-132.8,-189.1C-93.7,-223.9,-46.8,-254.5,-6.4,-245.7C34.1,-236.9,68.2,-188.8,103.7,-152.9Z" fill="#0693e3" />
  </g>
</svg>
  